# xmcd
#
# Track frame offsets:
#	150
#	8504
#	33303
#	45005
#	65143
#	80181
#	93717
#	119909
#	140188
#	156474
#	173737
#	195440
#	210367
#	230277
#	253325
#	268642
#	283575
#
# Disc length: 4738 seconds
# Revision: 0
# Processed by: cddbd v1.5.2PL0 Copyright (c) Steve Scherf et al.
# Submitted via: dBpowerAMP V12.0
#
DISCID=f7128011
DTITLE=Big Mama Thorntorn - In Europe
DYEAR=1966
DGENRE=Blues
TTITLE0=Swing it On Home
TTITLE1=Sweet Little Angel
TTITLE2=The Place
TTITLE3=Little Red Rooster
TTITLE4=Unlucky Girl
TTITLE5=Hound Dog
TTITLE6=My Heavy Load
TTITLE7=School Boy
TTITLE8=Down-Home, Shake-Down
TTITLE9=Your Love is Where it Ought to Be
TTITLE10=Session Blues
TTITLE11=I Need Your Love
TTITLE12=Good Girl in London [Bonus]
TTITLE13=Chauffeur Blues [Bonus]
TTITLE14=Swing it On Home [Bonus]
TTITLE15=Hound Dog [Take Two]
TTITLE16=Big Mama Talks to Chris Strachwitz [Bonus]
EXTD=
EXTT0=
EXTT1=
EXTT2=
EXTT3=
EXTT4=
EXTT5=
EXTT6=
EXTT7=
EXTT8=
EXTT9=
EXTT10=
EXTT11=
EXTT12=
EXTT13=
EXTT14=
EXTT15=
EXTT16=
PLAYORDER=
